<?xml version="1.0" encoding="UTF-8"?>
<svg id="Camada_2" data-name="Camada 2" xmlns="http://www.w3.org/2000/svg" xmlns:xlink="http://www.w3.org/1999/xlink" viewBox="0 0 358.52 93.32">
  <defs>
    <style>
      .cls-1 {
        fill: url(#Gradiente_sem_nome_78-2);
      }

      .cls-1, .cls-2, .cls-3, .cls-4, .cls-5 {
        stroke-width: 0px;
      }

      .cls-2 {
        fill: url(#Gradiente_sem_nome_78);
      }

      .cls-3 {
        fill: #d8e576;
      }

      .cls-4 {
        fill: #b6d8a2;
      }

      .cls-5 {
        fill: url(#Gradiente_sem_nome_78-3);
      }
    </style>
    <linearGradient id="Gradiente_sem_nome_78" data-name="Gradiente sem nome 78" x1="48.33" y1="81.72" x2="74.82" y2="11.2" gradientUnits="userSpaceOnUse">
      <stop offset="0" stop-color="#b6d8a2"/>
      <stop offset=".23" stop-color="#d6e478"/>
      <stop offset=".37" stop-color="#d6e477" stop-opacity=".99"/>
      <stop offset=".5" stop-color="#d6e477" stop-opacity=".94"/>
      <stop offset=".61" stop-color="#d6e477" stop-opacity=".86"/>
      <stop offset=".72" stop-color="#d6e477" stop-opacity=".75"/>
      <stop offset=".82" stop-color="#d7e476" stop-opacity=".61"/>
      <stop offset=".93" stop-color="#d7e476" stop-opacity=".45"/>
      <stop offset="1" stop-color="#d8e576" stop-opacity=".3"/>
    </linearGradient>
    <linearGradient id="Gradiente_sem_nome_78-2" data-name="Gradiente sem nome 78" x1="17.39" y1="70.09" x2="43.88" y2="-.42" xlink:href="#Gradiente_sem_nome_78"/>
    <linearGradient id="Gradiente_sem_nome_78-3" data-name="Gradiente sem nome 78" x1="40.2" y1="78.66" x2="66.69" y2="8.15" xlink:href="#Gradiente_sem_nome_78"/>
  </defs>
  <g id="Camada_1-2" data-name="Camada 1">
    <g>
      <g>
        <g>
          <path class="cls-3" d="M110.85,59.93c.53,0,.96.17,1.27.52.31.35.47.77.47,1.27v29.16c0,.6-.19,1.07-.56,1.43-.38.36-.85.54-1.41.54-.25,0-.52-.05-.8-.16-.28-.11-.5-.26-.66-.45l-20.13-26.62.94-.52v26.01c0,.5-.16.92-.49,1.25-.33.33-.76.49-1.29.49s-.96-.16-1.27-.49c-.31-.33-.47-.74-.47-1.25v-29.25c0-.6.19-1.07.56-1.41.38-.34.81-.52,1.32-.52.28,0,.57.06.87.16.3.11.52.29.68.54l19.8,26.2-.56.75v-25.87c0-.5.16-.92.49-1.27.33-.34.74-.52,1.25-.52Z"/>
          <path class="cls-3" d="M138.36,68.53c.56,0,1.02.18,1.36.54.34.36.52.82.52,1.39v12.79c0,3.17-.89,5.62-2.66,7.36-1.77,1.74-4.24,2.61-7.41,2.61s-5.59-.87-7.36-2.61c-1.77-1.74-2.66-4.19-2.66-7.36v-12.79c0-.56.18-1.03.54-1.39s.81-.54,1.34-.54c.56,0,1.02.18,1.36.54.34.36.52.82.52,1.39v12.79c0,2.13.55,3.75,1.65,4.84,1.1,1.1,2.63,1.65,4.61,1.65s3.56-.55,4.66-1.65c1.1-1.1,1.65-2.71,1.65-4.84v-12.79c0-.56.17-1.03.52-1.39.34-.36.8-.54,1.36-.54Z"/>
          <path class="cls-3" d="M146.26,68.68h11.05c.5,0,.92.17,1.25.52.33.35.49.77.49,1.27,0,.47-.16.87-.49,1.2-.33.33-.75.49-1.25.49h-11.05c-.47,0-.89-.17-1.25-.52-.36-.34-.54-.75-.54-1.22,0-.5.18-.92.54-1.25.36-.33.78-.49,1.25-.49ZM151.2,62.28c.53,0,.97.19,1.32.56.34.38.52.83.52,1.36v22.67c0,.75.11,1.32.33,1.69.22.38.51.63.87.78.36.14.71.21,1.06.21.31,0,.59-.05.82-.16.24-.11.51-.16.82-.16s.6.15.87.45c.27.3.4.68.4,1.15,0,.56-.33,1.04-.99,1.43-.66.39-1.4.59-2.21.59-.44,0-.98-.03-1.62-.09-.64-.06-1.28-.27-1.9-.61-.63-.34-1.15-.92-1.58-1.72-.42-.8-.63-1.92-.63-3.36v-22.86c0-.53.19-.99.56-1.36.38-.38.83-.56,1.36-.56Z"/>
          <path class="cls-3" d="M166.16,92.85c-.53,0-.98-.19-1.34-.56-.36-.38-.54-.83-.54-1.36v-20.46c0-.56.18-1.03.54-1.39s.81-.54,1.34-.54c.56,0,1.02.18,1.36.54.34.36.52.82.52,1.39v6.16l-.56-.99c.19-.97.52-1.92,1.01-2.85.49-.92,1.11-1.76,1.86-2.49.75-.74,1.61-1.32,2.59-1.74.97-.42,2.04-.63,3.2-.63.69,0,1.32.16,1.9.49.58.33.87.79.87,1.39,0,.66-.17,1.15-.52,1.48-.35.33-.74.49-1.18.49-.41,0-.8-.09-1.18-.28-.38-.19-.85-.28-1.41-.28-.78,0-1.56.22-2.33.66-.77.44-1.47,1.04-2.12,1.81-.64.77-1.16,1.65-1.55,2.63-.39.99-.59,2.05-.59,3.17v11.43c0,.53-.18.99-.54,1.36-.36.38-.81.56-1.34.56Z"/>
          <path class="cls-3" d="M184.83,65.01c-.78,0-1.36-.16-1.74-.47-.38-.31-.56-.8-.56-1.46v-.66c0-.66.2-1.14.61-1.46.41-.31.99-.47,1.74-.47s1.32.16,1.69.47c.38.31.56.8.56,1.46v.66c0,.66-.2,1.15-.59,1.46-.39.31-.96.47-1.72.47ZM186.76,90.92c0,.53-.18.99-.54,1.36-.36.38-.81.56-1.34.56-.56,0-1.03-.19-1.39-.56-.36-.38-.54-.83-.54-1.36v-20.84c0-.53.18-.99.54-1.36.36-.38.82-.56,1.39-.56.53,0,.98.19,1.34.56.36.38.54.83.54,1.36v20.84Z"/>
        </g>
        <g>
          <path class="cls-4" d="M207.08,59.93c1.69,0,3.24.42,4.63,1.27,1.39.85,2.49,2.01,3.29,3.48.8,1.47,1.2,3.15,1.2,5.03s-.4,3.53-1.2,5.03c-.8,1.5-1.9,2.7-3.29,3.6-1.4.89-2.94,1.34-4.63,1.34h-9.55l.33-.61v11.85c0,.53-.17.99-.52,1.36-.35.38-.78.56-1.32.56-.56,0-1.02-.19-1.36-.56-.35-.38-.52-.83-.52-1.36v-29.07c0-.53.19-.99.56-1.36s.83-.56,1.36-.56h11.01ZM207.08,76.01c1,0,1.9-.28,2.7-.85.8-.56,1.43-1.32,1.9-2.28.47-.96.71-2.01.71-3.17s-.24-2.2-.71-3.13c-.47-.92-1.11-1.65-1.9-2.19-.8-.53-1.7-.8-2.7-.8h-9.55l.33-.56v13.45l-.33-.47h9.55Z"/>
          <path class="cls-4" d="M225.84,90.92c0,.53-.19.99-.56,1.36-.38.38-.83.56-1.36.56s-.98-.19-1.34-.56c-.36-.38-.54-.83-.54-1.36v-30.95c0-.53.19-.99.56-1.36.38-.38.83-.56,1.36-.56.56,0,1.02.19,1.36.56.34.38.52.83.52,1.36v30.95Z"/>
          <path class="cls-4" d="M253.17,68.3c.53,0,.98.18,1.34.54.36.36.54.81.54,1.34v20.74c0,.53-.18.99-.54,1.36-.36.38-.81.56-1.34.56-.56,0-1.03-.19-1.39-.56-.36-.38-.54-.83-.54-1.36v-4.47l.89-.09c0,.72-.24,1.48-.71,2.28-.47.8-1.11,1.55-1.93,2.26-.82.71-1.77,1.29-2.87,1.74-1.1.45-2.29.68-3.57.68-2.13,0-4.05-.56-5.76-1.67-1.71-1.11-3.05-2.63-4.02-4.54-.97-1.91-1.46-4.09-1.46-6.54s.49-4.66,1.48-6.56c.99-1.9,2.32-3.39,4-4.47,1.68-1.08,3.57-1.62,5.67-1.62,1.35,0,2.6.22,3.76.66,1.16.44,2.17,1.03,3.03,1.79.86.75,1.53,1.58,2,2.49.47.91.71,1.82.71,2.73l-1.22-.28v-5.13c0-.53.18-.98.54-1.34s.82-.54,1.39-.54ZM243.48,89.84c1.57,0,2.95-.41,4.14-1.22,1.19-.81,2.13-1.92,2.82-3.32.69-1.39,1.03-2.97,1.03-4.73s-.35-3.28-1.03-4.66c-.69-1.38-1.63-2.48-2.82-3.29-1.19-.81-2.57-1.22-4.14-1.22s-2.91.4-4.12,1.2c-1.21.8-2.16,1.89-2.85,3.27-.69,1.38-1.03,2.95-1.03,4.7s.34,3.33,1.01,4.73c.67,1.4,1.61,2.5,2.82,3.32,1.21.82,2.59,1.22,4.16,1.22Z"/>
          <path class="cls-4" d="M274.1,67.92c2.13,0,3.81.44,5.03,1.32,1.22.88,2.09,2.05,2.61,3.53.52,1.47.78,3.14.78,4.99v13.17c0,.53-.18.99-.54,1.36-.36.38-.81.56-1.34.56-.56,0-1.02-.19-1.36-.56-.35-.38-.52-.83-.52-1.36v-13.08c0-1.19-.18-2.27-.54-3.25-.36-.97-.96-1.75-1.81-2.33-.85-.58-1.98-.87-3.39-.87-1.32,0-2.52.29-3.62.87-1.1.58-1.98,1.36-2.63,2.33-.66.97-.99,2.05-.99,3.25v13.08c0,.53-.18.99-.54,1.36-.36.38-.81.56-1.34.56s-.98-.19-1.34-.56c-.36-.38-.54-.83-.54-1.36v-20.46c0-.56.18-1.03.54-1.39s.81-.54,1.34-.54c.56,0,1.02.18,1.36.54.34.36.52.82.52,1.39v3.29l-.94,1.03c.16-.81.52-1.64,1.08-2.47.56-.83,1.27-1.58,2.12-2.23.85-.66,1.79-1.18,2.82-1.58,1.03-.39,2.12-.59,3.25-.59Z"/>
          <path class="cls-4" d="M301.57,67.92c2.13,0,3.81.44,5.03,1.32,1.22.88,2.09,2.05,2.61,3.53.52,1.47.78,3.14.78,4.99v13.17c0,.53-.18.99-.54,1.36-.36.38-.81.56-1.34.56-.56,0-1.02-.19-1.36-.56-.35-.38-.52-.83-.52-1.36v-13.08c0-1.19-.18-2.27-.54-3.25-.36-.97-.96-1.75-1.81-2.33-.85-.58-1.98-.87-3.39-.87-1.32,0-2.52.29-3.62.87-1.1.58-1.98,1.36-2.63,2.33-.66.97-.99,2.05-.99,3.25v13.08c0,.53-.18.99-.54,1.36-.36.38-.81.56-1.34.56s-.98-.19-1.34-.56c-.36-.38-.54-.83-.54-1.36v-20.46c0-.56.18-1.03.54-1.39s.81-.54,1.34-.54c.56,0,1.02.18,1.36.54.34.36.52.82.52,1.39v3.29l-.94,1.03c.16-.81.52-1.64,1.08-2.47.56-.83,1.27-1.58,2.12-2.23.85-.66,1.79-1.18,2.82-1.58,1.03-.39,2.12-.59,3.25-.59Z"/>
          <path class="cls-4" d="M328.19,93.32c-2.54,0-4.75-.53-6.63-1.6-1.88-1.07-3.34-2.53-4.37-4.4-1.03-1.87-1.55-4.02-1.55-6.47,0-2.73.54-5.06,1.62-6.98,1.08-1.93,2.49-3.4,4.23-4.42,1.74-1.02,3.58-1.53,5.53-1.53,1.44,0,2.84.27,4.19.8,1.35.53,2.54,1.32,3.57,2.35,1.03,1.03,1.87,2.26,2.49,3.67.63,1.41.96,3.01.99,4.8,0,.5-.19.92-.56,1.25-.38.33-.82.49-1.32.49h-18.58l-.85-3.25h18.06l-.75.66v-1.03c-.09-1.29-.51-2.39-1.25-3.32-.74-.92-1.63-1.64-2.68-2.14-1.05-.5-2.16-.75-3.32-.75-.94,0-1.87.17-2.8.52-.93.35-1.76.88-2.49,1.6-.74.72-1.33,1.66-1.79,2.82-.45,1.16-.68,2.56-.68,4.19,0,1.82.37,3.42,1.11,4.8.74,1.38,1.76,2.47,3.08,3.27,1.32.8,2.85,1.2,4.61,1.2,1.1,0,2.05-.14,2.87-.42.81-.28,1.51-.63,2.09-1.06.58-.42,1.07-.85,1.48-1.29.41-.28.82-.42,1.22-.42.44,0,.81.16,1.13.47.31.31.47.69.47,1.13,0,.53-.25,1.02-.75,1.46-.91.97-2.11,1.82-3.6,2.54-1.49.72-3.08,1.08-4.77,1.08Z"/>
          <path class="cls-4" d="M345.78,92.85c-.53,0-.98-.19-1.34-.56-.36-.38-.54-.83-.54-1.36v-20.46c0-.56.18-1.03.54-1.39s.81-.54,1.34-.54c.56,0,1.02.18,1.36.54.34.36.52.82.52,1.39v6.16l-.56-.99c.19-.97.52-1.92,1.01-2.85.49-.92,1.11-1.76,1.86-2.49.75-.74,1.61-1.32,2.59-1.74.97-.42,2.04-.63,3.2-.63.69,0,1.32.16,1.9.49.58.33.87.79.87,1.39,0,.66-.17,1.15-.52,1.48-.35.33-.74.49-1.18.49-.41,0-.8-.09-1.18-.28-.38-.19-.85-.28-1.41-.28-.78,0-1.56.22-2.33.66-.77.44-1.47,1.04-2.12,1.81-.64.77-1.16,1.65-1.55,2.63-.39.99-.59,2.05-.59,3.17v11.43c0,.53-.18.99-.54,1.36-.36.38-.81.56-1.34.56Z"/>
        </g>
      </g>
      <g>
        <path class="cls-2" d="M63.88,78.84c2.1-3.02,3.6-6.05,4.63-9.02,2.35-7.43,1.99-14.9.9-20.48-1.02-4.26-2.56-7.49-3.6-9.09-.56.9,1.12,8.26-5.86,15.18-6.92,6.86-14.18,4.54-15.16,5.51-1.38,1.38-5.17,6.71-8.96,13.09-2.9,4.88-3.64,10.77-4.13,19.29.37,0,1.5-.01,3.17-.14,4.29-6.45,3.18-12.06,2.42-14.92l-.83-2.7c.12-.22.25-.45.38-.67.84-1.42,1.68-2.77,2.48-4.03.82,1.9,2.04,4.94,2.77,8.43.61,2.89.16,7.23-.55,12.96,1.19-.24,2.44-.54,3.73-.9,6.45-1.89,13.75-5.54,18.61-12.52ZM46.12,88.08c.95-1.4,2.93-4.37,4.96-7.57,4.28-6.74,8.74-9.76,8.53-9.98-.24-.24-5.74,3.6-10.37,9.86-1.6,2.16-2.8,4.15-3.67,5.75-.07-1.87-.03-4.71.58-7.44.39-1.76.87-3.23,3.62-6.23,3.3-3.62,6.99-5.76,10.78-8.31,3.56-2.41,6.05-5.99,6.05-5.99,0,0,1.01,8.73-5.47,18.82-3.51,5.46-12.94,10.11-15,11.08Z"/>
        <path class="cls-1" d="M30.79,76.04c4.29-9.65,11.09-17.3,10.76-17.94-1.44-2.87-2.87-10.76,0-16.51,2.51-5.01,7.89-9.33,14.75-11.41.04-.01.07-.04.09-.07-.08-.07-.16-.15-.24-.21-1.58-1.39-10.79-9.07-14.1-19.89-1.29-4.21-1.44-7.56-1.44-8.8-1.03,2.34-5.52,11.58-5.52,26.04,0,13.21,2.15,22.25,2.15,22.25,0,0-.17-.38-.44-1.08.14.7.23,1.07.23,1.07,0,0-5.21-11.71-4.31-26.55.87-14.19,5.36-22.3,5.08-22.92C34.58.96,1.45,27.61,5.67,47.34c2.74,12.8,10.94,11.05,17.22,21.53,2.15,3.59,2.87,7.89,2.87,7.89,0,0-.14-.44-.45-1.18.17.72.25,1.16.25,1.16,0,0-1.69-5.28-6.46-10.05-5.74-5.74-9.17-5.38-13.63-11.48-3.16-4.32-2.77-7.47-3.44-7.85-.87.71-5.16,16.47,2.21,29.39,1.86,3.26,4.76,6.22,7.89,8.69,6.34,4.66,13.43,6.96,14.86,7.09.07,0,.14.01.21.02,0,0,0,0,0,0,0-6.46.72-10.05,3.59-16.51ZM18.56,81.9c1.97,2.81,3.9,5.43,4.82,6.67-1.92-.8-10.67-4.63-14.08-9.45-6.3-8.9-5.74-16.86-5.74-16.86,0,0,2.41,3.15,5.74,5.19,3.54,2.16,6.98,3.96,10.13,7.11,2.61,2.62,3.11,3.93,3.54,5.51.67,2.45.82,5.03.83,6.73-.86-1.42-2.03-3.18-3.57-5.07-4.46-5.5-9.61-8.75-9.82-8.52-.19.21,3.99,2.77,8.15,8.71ZM26.7,57.37s-5.21-.68-8.42-4.67c-3.08-3.84-6.9-15.38-7.98-18.75-.03-.09.09-.14.13-.06,1.67,3.39,7.77,15.43,9.62,14.19.7-.47-4.69-11.98-6.55-15.92-.04-.08.08-.14.12-.06,2.23,3.69,8.79,14.31,10.06,13.74,1.15-.52-5.04-11.93-7.21-15.83-.04-.08.07-.14.12-.07,2.52,3.66,9.89,14.22,10.64,13.84,1.27-.64-5.9-13.66-7.56-16.62-.04-.07.06-.14.11-.08,2.27,2.66,12.4,14.81,13.19,20.29.72,5.02-2.6,8.01-2.6,8.01,0,0,2.77,2.9,5.73,8.36-.85,1.25-1.76,2.65-2.69,4.17-3.18-6.7-6.72-10.53-6.72-10.53Z"/>
        <path class="cls-5" d="M45.14,40.16c-3.79,5.61-4.18,14.65,0,17.22,4.09,2.52,11.65-1.02,15.07-6.46,2.51-3.99,3.96-10.23,2.77-14.21-1.08-1.21-2.29-2.47-3.46-3.63-4.32-1.19-11.26,2.45-14.39,7.08Z"/>
      </g>
    </g>
  </g>
</svg>