<?xml version="1.0" encoding="UTF-8"?>
<svg id="Camada_2" data-name="Camada 2" xmlns="http://www.w3.org/2000/svg" viewBox="0 0 263.71 100.55">
  <defs>
    <style>
      .cls-1 {
        fill: #b6d8a2;
        stroke-width: 0px;
      }
    </style>
  </defs>
  <g id="Camada_1-2" data-name="Camada 1">
    <g>
      <g>
        <path class="cls-1" d="M112.89,15.78c.57,0,1.03.19,1.37.56.34.37.51.83.51,1.37v31.42c0,.64-.2,1.16-.61,1.55-.41.39-.91.58-1.52.58-.27,0-.56-.06-.86-.18-.3-.12-.54-.28-.71-.48l-21.69-28.68,1.01-.56v28.03c0,.54-.18.99-.53,1.34-.35.35-.82.53-1.39.53s-1.03-.18-1.37-.53c-.34-.35-.51-.8-.51-1.34v-31.52c0-.64.2-1.15.61-1.52.41-.37.88-.56,1.42-.56.3,0,.62.06.94.18.32.12.57.31.73.58l21.34,28.23-.61.81v-27.87c0-.54.18-1,.53-1.37.35-.37.8-.56,1.34-.56Z"/>
        <path class="cls-1" d="M142.54,25.06c.61,0,1.1.19,1.47.58.37.39.56.89.56,1.49v13.78c0,3.41-.96,6.06-2.86,7.93-1.91,1.88-4.57,2.81-7.98,2.81s-6.02-.94-7.93-2.81c-1.91-1.87-2.86-4.52-2.86-7.93v-13.78c0-.61.19-1.11.58-1.49.39-.39.87-.58,1.44-.58.61,0,1.1.19,1.47.58.37.39.56.89.56,1.49v13.78c0,2.3.59,4.04,1.77,5.22,1.18,1.18,2.84,1.77,4.97,1.77s3.83-.59,5.02-1.77c1.18-1.18,1.77-2.92,1.77-5.22v-13.78c0-.61.19-1.11.56-1.49.37-.39.86-.58,1.47-.58Z"/>
        <path class="cls-1" d="M151.05,25.21h11.91c.54,0,.99.19,1.34.56.35.37.53.83.53,1.37,0,.51-.18.94-.53,1.29-.35.35-.8.53-1.34.53h-11.91c-.51,0-.95-.19-1.34-.56-.39-.37-.58-.81-.58-1.32,0-.54.19-.99.58-1.34.39-.35.84-.53,1.34-.53ZM156.37,18.32c.57,0,1.05.2,1.42.61.37.41.56.9.56,1.47v24.43c0,.81.12,1.42.35,1.82.24.41.55.68.94.84.39.15.77.23,1.14.23.34,0,.63-.06.89-.18.25-.12.55-.18.89-.18s.65.16.94.48c.29.32.43.73.43,1.24,0,.61-.35,1.12-1.06,1.55-.71.42-1.5.63-2.38.63-.47,0-1.06-.03-1.75-.1-.69-.07-1.38-.29-2.05-.66-.68-.37-1.24-.99-1.7-1.85-.46-.86-.68-2.07-.68-3.62v-24.63c0-.57.2-1.06.61-1.47.41-.41.89-.61,1.47-.61Z"/>
        <path class="cls-1" d="M172.49,51.26c-.57,0-1.06-.2-1.44-.61-.39-.41-.58-.89-.58-1.47v-22.05c0-.61.19-1.11.58-1.49s.87-.58,1.44-.58c.61,0,1.1.19,1.47.58.37.39.56.89.56,1.49v6.64l-.61-1.06c.2-1.05.57-2.07,1.09-3.07.52-1,1.19-1.89,2-2.69.81-.79,1.74-1.42,2.79-1.88,1.05-.46,2.2-.68,3.45-.68.74,0,1.43.18,2.05.53.62.35.94.85.94,1.49,0,.71-.19,1.24-.56,1.6-.37.35-.79.53-1.27.53-.44,0-.86-.1-1.27-.3-.41-.2-.91-.3-1.52-.3-.84,0-1.68.24-2.51.71-.83.47-1.59,1.12-2.28,1.95-.69.83-1.25,1.77-1.67,2.84-.42,1.06-.63,2.2-.63,3.42v12.32c0,.57-.19,1.06-.58,1.47-.39.41-.87.61-1.44.61Z"/>
        <path class="cls-1" d="M192.61,21.26c-.84,0-1.47-.17-1.88-.51-.41-.34-.61-.86-.61-1.57v-.71c0-.71.22-1.23.66-1.57.44-.34,1.06-.51,1.87-.51s1.42.17,1.82.51c.41.34.61.86.61,1.57v.71c0,.71-.21,1.23-.63,1.57-.42.34-1.04.51-1.85.51ZM194.68,49.18c0,.57-.19,1.06-.58,1.47-.39.41-.87.61-1.44.61-.61,0-1.11-.2-1.49-.61-.39-.41-.58-.89-.58-1.47v-22.45c0-.57.19-1.06.58-1.47.39-.41.89-.61,1.49-.61.57,0,1.06.2,1.44.61.39.41.58.9.58,1.47v22.45Z"/>
      </g>
      <g>
        <path class="cls-1" d="M68.83,84.95c2.26-3.25,3.88-6.52,4.99-9.72,2.53-8,2.14-16.05.97-22.07-1.1-4.59-2.76-8.07-3.88-9.79-.6.96,1.2,8.9-6.31,16.36-7.45,7.39-15.28,4.89-16.33,5.94-1.48,1.48-5.57,7.23-9.65,14.1-3.12,5.26-3.92,11.6-4.45,20.78.39,0,1.62-.01,3.41-.15,4.62-6.95,3.43-12.99,2.6-16.07l-.89-2.91c.13-.24.27-.48.41-.72.91-1.53,1.81-2.98,2.67-4.34.88,2.05,2.19,5.32,2.99,9.09.66,3.12.17,7.79-.6,13.97,1.28-.26,2.63-.58,4.02-.97,6.95-2.04,14.81-5.97,20.05-13.5ZM49.69,94.91c1.02-1.51,3.16-4.71,5.35-8.15,4.62-7.26,9.42-10.52,9.19-10.75-.26-.26-6.18,3.87-11.17,10.62-1.72,2.33-3.02,4.48-3.96,6.2-.07-2.01-.03-5.08.63-8.01.42-1.89.94-3.48,3.9-6.71,3.56-3.9,7.54-6.21,11.61-8.96,3.84-2.59,6.52-6.45,6.52-6.45,0,0,1.09,9.41-5.89,20.28-3.78,5.89-13.94,10.9-16.17,11.94Z"/>
        <path class="cls-1" d="M33.18,81.93c4.62-10.4,11.94-18.64,11.6-19.33-1.55-3.09-3.09-11.6,0-17.78,2.7-5.4,8.51-10.05,15.9-12.29.05-.01.08-.04.1-.08-.09-.08-.18-.16-.26-.23-1.71-1.5-11.62-9.77-15.19-21.43-1.39-4.53-1.55-8.15-1.55-9.49-1.11,2.52-5.95,12.47-5.95,28.06,0,14.23,2.32,23.97,2.32,23.97,0,0-.18-.41-.47-1.16.15.75.25,1.15.25,1.15,0,0-5.62-12.61-4.64-28.61.94-15.29,5.78-24.03,5.48-24.7C37.26,1.04,1.56,29.75,6.11,51c2.96,13.8,11.78,11.91,18.56,23.2,2.32,3.87,3.09,8.51,3.09,8.51,0,0-.15-.47-.49-1.27.18.78.26,1.25.26,1.25,0,0-1.82-5.69-6.96-10.83-6.19-6.19-9.88-5.79-14.69-12.37-3.41-4.66-2.99-8.04-3.7-8.46-.94.77-5.56,17.74,2.38,31.67,2,3.51,5.13,6.7,8.51,9.36,6.83,5.02,14.47,7.5,16.01,7.64.07,0,.15.01.22.02,0,0,0,0,0,0,0-6.96.77-10.83,3.87-17.78ZM19.99,88.25c2.13,3.03,4.2,5.85,5.19,7.18-2.06-.86-11.5-4.99-15.17-10.18-6.79-9.58-6.19-18.17-6.19-18.17,0,0,2.6,3.39,6.19,5.59,3.81,2.33,7.52,4.26,10.91,7.66,2.82,2.82,3.35,4.23,3.82,5.94.72,2.64.88,5.42.9,7.25-.92-1.53-2.19-3.42-3.85-5.47-4.81-5.92-10.36-9.43-10.58-9.19-.2.22,4.29,2.98,8.79,9.39ZM28.77,61.82s-5.61-.73-9.07-5.03c-3.32-4.13-7.44-16.57-8.6-20.2-.03-.09.1-.15.14-.06,1.8,3.66,8.37,16.62,10.37,15.29.75-.5-5.05-12.91-7.06-17.15-.04-.09.08-.15.13-.07,2.4,3.98,9.48,15.42,10.84,14.81,1.24-.56-5.43-12.85-7.77-17.06-.05-.08.07-.16.13-.08,2.72,3.94,10.65,15.32,11.46,14.91,1.37-.68-6.36-14.72-8.14-17.91-.04-.08.06-.15.12-.08,2.44,2.86,13.37,15.95,14.21,21.86.77,5.41-2.8,8.63-2.8,8.63,0,0,2.98,3.13,6.18,9-.91,1.35-1.9,2.86-2.9,4.5-3.42-7.22-7.24-11.35-7.24-11.35Z"/>
        <path class="cls-1" d="M48.64,43.27c-4.08,6.04-4.5,15.79,0,18.56,4.41,2.71,12.55-1.09,16.24-6.96,2.7-4.3,4.26-11.03,2.99-15.31-1.17-1.31-2.47-2.67-3.72-3.91-4.66-1.29-12.13,2.64-15.5,7.63Z"/>
      </g>
      <g>
        <path class="cls-1" d="M100.52,64.57c1.82,0,3.49.46,4.99,1.37,1.5.91,2.69,2.16,3.55,3.75.86,1.59,1.29,3.4,1.29,5.42s-.43,3.8-1.29,5.42c-.86,1.62-2.04,2.91-3.55,3.88-1.5.96-3.17,1.44-4.99,1.44h-10.29l.35-.66v12.77c0,.57-.19,1.06-.56,1.47-.37.41-.84.61-1.42.61-.61,0-1.1-.2-1.47-.61-.37-.41-.56-.89-.56-1.47v-31.32c0-.57.2-1.06.61-1.47s.89-.61,1.47-.61h11.86ZM100.52,81.9c1.08,0,2.05-.3,2.91-.91.86-.61,1.55-1.43,2.05-2.46.51-1.03.76-2.17.76-3.42s-.25-2.37-.76-3.37c-.51-1-1.19-1.78-2.05-2.36-.86-.57-1.83-.86-2.91-.86h-10.29l.35-.61v14.49l-.35-.51h10.29Z"/>
        <path class="cls-1" d="M120.74,97.97c0,.57-.2,1.06-.61,1.47-.41.41-.9.61-1.47.61s-1.06-.2-1.44-.61c-.39-.41-.58-.89-.58-1.47v-33.35c0-.57.2-1.06.61-1.47.41-.41.89-.61,1.47-.61.61,0,1.1.2,1.47.61.37.41.56.9.56,1.47v33.35Z"/>
        <path class="cls-1" d="M150.19,73.59c.57,0,1.06.19,1.44.58.39.39.58.87.58,1.44v22.35c0,.57-.19,1.06-.58,1.47-.39.41-.87.61-1.44.61-.61,0-1.11-.2-1.49-.61-.39-.41-.58-.89-.58-1.47v-4.81l.96-.1c0,.78-.25,1.6-.76,2.46-.51.86-1.2,1.67-2.08,2.43-.88.76-1.91,1.39-3.09,1.88-1.18.49-2.47.73-3.85.73-2.3,0-4.37-.6-6.21-1.8-1.84-1.2-3.29-2.83-4.33-4.89-1.05-2.06-1.57-4.41-1.57-7.04s.53-5.03,1.6-7.07c1.06-2.04,2.5-3.65,4.31-4.81,1.81-1.17,3.84-1.75,6.11-1.75,1.45,0,2.8.24,4.05.71,1.25.47,2.34,1.11,3.27,1.93.93.81,1.65,1.71,2.15,2.69.51.98.76,1.96.76,2.94l-1.32-.3v-5.52c0-.57.19-1.06.58-1.44s.89-.58,1.49-.58ZM139.75,96.8c1.69,0,3.18-.44,4.46-1.32,1.28-.88,2.3-2.07,3.04-3.57.74-1.5,1.11-3.2,1.11-5.09s-.37-3.53-1.11-5.02c-.74-1.49-1.76-2.67-3.04-3.55-1.28-.88-2.77-1.32-4.46-1.32s-3.13.43-4.43,1.29c-1.3.86-2.32,2.04-3.07,3.52-.74,1.49-1.11,3.18-1.11,5.07s.36,3.59,1.09,5.09c.73,1.5,1.74,2.69,3.04,3.57,1.3.88,2.8,1.32,4.49,1.32Z"/>
        <path class="cls-1" d="M172.74,73.19c2.3,0,4.11.47,5.42,1.42,1.32.95,2.26,2.21,2.81,3.8.56,1.59.84,3.38.84,5.37v14.19c0,.57-.19,1.06-.58,1.47-.39.41-.87.61-1.44.61-.61,0-1.1-.2-1.47-.61-.37-.41-.56-.89-.56-1.47v-14.09c0-1.28-.19-2.45-.58-3.5-.39-1.05-1.04-1.88-1.95-2.51-.91-.62-2.13-.94-3.65-.94-1.42,0-2.72.31-3.9.94-1.18.63-2.13,1.46-2.84,2.51-.71,1.05-1.06,2.21-1.06,3.5v14.09c0,.57-.19,1.06-.58,1.47-.39.41-.87.61-1.44.61s-1.06-.2-1.44-.61c-.39-.41-.58-.89-.58-1.47v-22.05c0-.61.19-1.11.58-1.49s.87-.58,1.44-.58c.61,0,1.1.19,1.47.58.37.39.56.89.56,1.49v3.55l-1.01,1.11c.17-.88.56-1.77,1.17-2.66.61-.89,1.37-1.7,2.28-2.41.91-.71,1.93-1.27,3.04-1.7,1.11-.42,2.28-.63,3.5-.63Z"/>
        <path class="cls-1" d="M202.34,73.19c2.3,0,4.11.47,5.42,1.42,1.32.95,2.26,2.21,2.81,3.8.56,1.59.84,3.38.84,5.37v14.19c0,.57-.19,1.06-.58,1.47-.39.41-.87.61-1.44.61-.61,0-1.1-.2-1.47-.61-.37-.41-.56-.89-.56-1.47v-14.09c0-1.28-.19-2.45-.58-3.5-.39-1.05-1.04-1.88-1.95-2.51-.91-.62-2.13-.94-3.65-.94-1.42,0-2.72.31-3.9.94-1.18.63-2.13,1.46-2.84,2.51-.71,1.05-1.06,2.21-1.06,3.5v14.09c0,.57-.19,1.06-.58,1.47-.39.41-.87.61-1.44.61s-1.06-.2-1.44-.61c-.39-.41-.58-.89-.58-1.47v-22.05c0-.61.19-1.11.58-1.49s.87-.58,1.44-.58c.61,0,1.1.19,1.47.58.37.39.56.89.56,1.49v3.55l-1.01,1.11c.17-.88.56-1.77,1.17-2.66.61-.89,1.37-1.7,2.28-2.41.91-.71,1.93-1.27,3.04-1.7,1.11-.42,2.28-.63,3.5-.63Z"/>
        <path class="cls-1" d="M231.02,100.55c-2.74,0-5.12-.57-7.15-1.72-2.03-1.15-3.6-2.73-4.71-4.74-1.11-2.01-1.67-4.33-1.67-6.97,0-2.94.58-5.45,1.75-7.53,1.17-2.08,2.69-3.67,4.56-4.76,1.88-1.1,3.86-1.65,5.95-1.65,1.55,0,3.06.29,4.51.86,1.45.57,2.74,1.42,3.85,2.53s2.01,2.43,2.69,3.95c.68,1.52,1.03,3.24,1.06,5.17,0,.54-.2.99-.61,1.34-.41.35-.88.53-1.42.53h-20.02l-.91-3.5h19.46l-.81.71v-1.11c-.1-1.39-.55-2.58-1.34-3.57-.79-1-1.76-1.77-2.89-2.31-1.13-.54-2.32-.81-3.57-.81-1.01,0-2.02.19-3.02.56-1,.37-1.89.95-2.69,1.72-.79.78-1.44,1.79-1.93,3.04-.49,1.25-.73,2.75-.73,4.51,0,1.96.4,3.68,1.19,5.17.79,1.49,1.9,2.66,3.32,3.52,1.42.86,3.07,1.29,4.97,1.29,1.18,0,2.21-.15,3.09-.46.88-.3,1.63-.68,2.26-1.14.62-.46,1.16-.92,1.6-1.39.44-.3.88-.46,1.32-.46.47,0,.88.17,1.22.51.34.34.51.74.51,1.22,0,.57-.27,1.1-.81,1.57-.98,1.05-2.27,1.96-3.88,2.74-1.61.78-3.32,1.17-5.14,1.17Z"/>
        <path class="cls-1" d="M249.98,100.05c-.57,0-1.06-.2-1.44-.61-.39-.41-.58-.89-.58-1.47v-22.05c0-.61.19-1.11.58-1.49s.87-.58,1.44-.58c.61,0,1.1.19,1.47.58.37.39.56.89.56,1.49v6.64l-.61-1.06c.2-1.05.57-2.07,1.09-3.07.52-1,1.19-1.89,2-2.69.81-.79,1.74-1.42,2.79-1.88,1.05-.46,2.2-.68,3.45-.68.74,0,1.43.18,2.05.53.62.35.94.85.94,1.49,0,.71-.19,1.24-.56,1.6-.37.35-.79.53-1.27.53-.44,0-.86-.1-1.27-.3-.41-.2-.91-.3-1.52-.3-.84,0-1.68.24-2.51.71-.83.47-1.59,1.12-2.28,1.95-.69.83-1.25,1.77-1.67,2.84-.42,1.06-.63,2.2-.63,3.42v12.32c0,.57-.19,1.06-.58,1.47-.39.41-.87.61-1.44.61Z"/>
      </g>
    </g>
  </g>
</svg>