<?xml version="1.0" encoding="UTF-8"?>
<svg id="Camada_2" data-name="Camada 2" xmlns="http://www.w3.org/2000/svg" viewBox="0 0 216.52 287.58">
  <defs>
    <style>
      .cls-1 {
        fill: #d8e576;
        stroke-width: 0px;
      }
    </style>
  </defs>
  <g id="Camada_1-2" data-name="Camada 1">
    <g>
      <path class="cls-1" d="M196.85,242.96c6.47-9.29,11.09-18.64,14.28-27.79,7.23-22.88,6.13-45.9,2.77-63.12-3.15-13.13-7.9-23.09-11.1-28.01-1.71,2.76,3.45,25.45-18.05,46.78-21.31,21.15-43.7,13.98-46.71,16.98-4.25,4.25-15.92,20.69-27.6,40.34-8.93,15.04-11.21,33.19-12.74,59.44,1.13-.02,4.63-.04,9.76-.42,13.22-19.88,9.8-37.16,7.45-45.97l-2.54-8.33c.37-.69.76-1.38,1.16-2.05,2.6-4.37,5.16-8.53,7.63-12.41,2.51,5.87,6.28,15.23,8.54,25.99,1.88,8.92.5,22.27-1.71,39.95,3.67-.74,7.53-1.66,11.5-2.79,19.87-5.82,42.36-17.07,57.35-38.59ZM142.11,271.43c2.92-4.33,9.03-13.48,15.29-23.31,13.2-20.77,26.94-30.08,26.27-30.75-.74-.75-17.67,11.08-31.95,30.38-4.92,6.66-8.62,12.8-11.31,17.73-.21-5.76-.09-14.52,1.79-22.91,1.21-5.42,2.69-9.95,11.15-19.2,10.18-11.15,21.55-17.75,33.21-25.62,10.98-7.42,18.66-18.45,18.66-18.45,0,0,3.11,26.9-16.86,57.99-10.81,16.83-39.87,31.16-46.24,34.15Z"/>
      <path class="cls-1" d="M94.89,234.33c13.22-29.75,34.16-53.31,33.17-55.29-4.42-8.85-8.85-33.17,0-50.86,7.72-15.45,24.33-28.75,45.47-35.16.13-.04.23-.12.29-.22-.25-.23-.5-.45-.75-.66-4.88-4.29-33.25-27.94-43.45-61.3-3.96-12.96-4.43-23.29-4.45-27.13-3.17,7.21-17.02,35.67-17.02,80.25,0,40.71,6.63,68.55,6.63,68.55,0,0-.52-1.16-1.35-3.32.43,2.15.7,3.28.7,3.28,0,0-16.07-36.07-13.27-81.82C103.56,26.91,117.4,1.92,116.54,0,106.55,2.96,4.46,85.07,17.49,145.87c8.46,39.46,33.7,34.05,53.07,66.34,6.63,11.06,8.85,24.33,8.85,24.33,0,0-.43-1.35-1.4-3.62.53,2.22.76,3.58.76,3.58,0,0-5.21-16.27-19.9-30.96-17.69-17.69-28.25-16.57-42.02-35.38-9.75-13.32-8.54-23.01-10.59-24.2-2.68,2.2-15.9,50.75,6.81,90.58,5.72,10.04,14.68,19.16,24.33,26.77,19.53,14.35,41.38,21.46,45.79,21.84.2.02.42.04.64.07,0,0,0-.02,0-.03,0-19.9,2.21-30.96,11.06-50.86ZM57.18,252.38c6.08,8.67,12.02,16.73,14.85,20.54-5.9-2.46-32.89-14.27-43.4-29.11-19.42-27.41-17.7-51.97-17.7-51.97,0,0,7.42,9.71,17.7,15.99,10.91,6.67,21.51,12.19,31.21,21.9,8.06,8.06,9.59,12.11,10.92,16.98,2.05,7.55,2.53,15.5,2.57,20.73-2.64-4.37-6.26-9.79-11-15.64-13.76-16.94-29.62-26.98-30.27-26.27-.58.63,12.28,8.53,25.13,26.84ZM82.27,176.8s-16.05-2.08-25.94-14.4c-9.49-11.82-21.27-47.38-24.59-57.78-.08-.27.29-.43.41-.18,5.15,10.46,23.94,47.54,29.64,43.74,2.16-1.44-14.44-36.92-20.2-49.05-.12-.24.23-.43.37-.2,6.88,11.38,27.1,44.11,31,42.35,3.56-1.61-15.54-36.75-22.21-48.8-.13-.24.21-.44.36-.22,7.78,11.28,30.47,43.81,32.78,42.65,3.92-1.96-18.19-42.09-23.29-51.23-.12-.22.18-.43.34-.24,6.98,8.19,38.22,45.63,40.64,62.53,2.21,15.48-8,24.68-8,24.68,0,0,8.52,8.95,17.66,25.75-2.61,3.85-5.43,8.17-8.28,12.86-9.78-20.64-20.71-32.46-20.71-32.46Z"/>
      <path class="cls-1" d="M139.12,123.75c-11.67,17.28-12.87,45.16,0,53.07,12.6,7.75,35.9-3.13,46.44-19.9,7.72-12.29,12.2-31.54,8.54-43.8-3.34-3.73-7.07-7.62-10.65-11.19-13.32-3.68-34.7,7.56-44.33,21.82Z"/>
    </g>
  </g>
</svg>