<?xml version="1.0" encoding="UTF-8"?>
<svg id="Camada_2" data-name="Camada 2" xmlns="http://www.w3.org/2000/svg" xmlns:xlink="http://www.w3.org/1999/xlink" viewBox="0 0 385.69 147.06">
  <defs>
    <style>
      .cls-1 {
        fill: url(#Gradiente_sem_nome_78-2);
      }

      .cls-1, .cls-2, .cls-3, .cls-4 {
        stroke-width: 0px;
      }

      .cls-2 {
        fill: url(#Gradiente_sem_nome_78);
      }

      .cls-3 {
        fill: #b6d8a2;
      }

      .cls-4 {
        fill: url(#Gradiente_sem_nome_78-3);
      }
    </style>
    <linearGradient id="Gradiente_sem_nome_78" data-name="Gradiente sem nome 78" x1="76.17" y1="128.78" x2="117.91" y2="17.65" gradientUnits="userSpaceOnUse">
      <stop offset="0" stop-color="#b6d8a2"/>
      <stop offset=".23" stop-color="#d6e478"/>
      <stop offset=".37" stop-color="#d6e477" stop-opacity=".99"/>
      <stop offset=".5" stop-color="#d6e477" stop-opacity=".94"/>
      <stop offset=".61" stop-color="#d6e477" stop-opacity=".86"/>
      <stop offset=".72" stop-color="#d6e477" stop-opacity=".75"/>
      <stop offset=".82" stop-color="#d7e476" stop-opacity=".61"/>
      <stop offset=".93" stop-color="#d7e476" stop-opacity=".45"/>
      <stop offset="1" stop-color="#d8e576" stop-opacity=".3"/>
    </linearGradient>
    <linearGradient id="Gradiente_sem_nome_78-2" data-name="Gradiente sem nome 78" x1="27.4" y1="110.45" x2="69.15" y2="-.67" xlink:href="#Gradiente_sem_nome_78"/>
    <linearGradient id="Gradiente_sem_nome_78-3" data-name="Gradiente sem nome 78" x1="63.36" y1="123.96" x2="105.1" y2="12.84" xlink:href="#Gradiente_sem_nome_78"/>
  </defs>
  <g id="Camada_1-2" data-name="Camada 1">
    <g>
      <g>
        <path class="cls-3" d="M165.1,23.09c.84,0,1.51.27,2,.82.49.54.74,1.21.74,2v45.95c0,.94-.3,1.69-.89,2.26-.59.57-1.33.85-2.22.85-.4,0-.82-.09-1.26-.26-.44-.17-.79-.41-1.04-.7l-31.72-41.95,1.48-.82v40.99c0,.79-.26,1.45-.78,1.96-.52.52-1.2.78-2.04.78s-1.51-.26-2-.78c-.49-.52-.74-1.17-.74-1.96V26.12c0-.94.3-1.68.89-2.22.59-.54,1.28-.82,2.08-.82.44,0,.9.09,1.37.26.47.17.83.46,1.07.85l31.2,41.29-.89,1.19V25.9c0-.79.26-1.46.78-2,.52-.54,1.17-.82,1.96-.82Z"/>
        <path class="cls-3" d="M208.46,36.65c.89,0,1.61.28,2.15.85.54.57.82,1.3.82,2.19v20.16c0,4.99-1.4,8.86-4.19,11.6-2.79,2.74-6.68,4.11-11.67,4.11s-8.81-1.37-11.6-4.11c-2.79-2.74-4.19-6.61-4.19-11.6v-20.16c0-.89.28-1.62.85-2.19s1.27-.85,2.11-.85c.89,0,1.61.28,2.15.85.54.57.82,1.3.82,2.19v20.16c0,3.36.86,5.91,2.59,7.63,1.73,1.73,4.15,2.59,7.26,2.59s5.61-.86,7.34-2.59c1.73-1.73,2.59-4.27,2.59-7.63v-20.16c0-.89.27-1.62.82-2.19.54-.57,1.26-.85,2.15-.85Z"/>
        <path class="cls-3" d="M220.92,36.87h17.42c.79,0,1.45.27,1.96.82.52.54.78,1.21.78,2,0,.74-.26,1.37-.78,1.89-.52.52-1.17.78-1.96.78h-17.42c-.74,0-1.4-.27-1.96-.82-.57-.54-.85-1.19-.85-1.93,0-.79.28-1.45.85-1.96.57-.52,1.22-.78,1.96-.78ZM228.7,26.79c.84,0,1.53.3,2.08.89.54.59.82,1.31.82,2.15v35.73c0,1.19.17,2.08.52,2.67.35.59.8,1,1.37,1.22.57.22,1.12.33,1.67.33.49,0,.93-.09,1.3-.26.37-.17.8-.26,1.3-.26s.95.24,1.37.7c.42.47.63,1.07.63,1.82,0,.89-.52,1.64-1.56,2.26-1.04.62-2.2.93-3.48.93-.69,0-1.54-.05-2.56-.15-1.01-.1-2.01-.42-3-.96-.99-.54-1.82-1.45-2.48-2.71-.67-1.26-1-3.03-1-5.3V29.83c0-.84.3-1.56.89-2.15.59-.59,1.31-.89,2.15-.89Z"/>
        <path class="cls-3" d="M252.27,74.97c-.84,0-1.54-.3-2.11-.89-.57-.59-.85-1.31-.85-2.15v-32.24c0-.89.28-1.62.85-2.19s1.27-.85,2.11-.85c.89,0,1.61.28,2.15.85.54.57.82,1.3.82,2.19v9.71l-.89-1.56c.3-1.53.83-3.03,1.59-4.48.77-1.46,1.74-2.77,2.93-3.93,1.19-1.16,2.54-2.08,4.08-2.74,1.53-.67,3.21-1,5.04-1,1.09,0,2.09.26,3,.78.91.52,1.37,1.25,1.37,2.19,0,1.04-.27,1.82-.82,2.33-.54.52-1.16.78-1.85.78-.64,0-1.26-.15-1.85-.44-.59-.3-1.33-.44-2.22-.44-1.24,0-2.46.35-3.67,1.04-1.21.69-2.32,1.64-3.34,2.85-1.01,1.21-1.83,2.59-2.45,4.15-.62,1.56-.93,3.22-.93,5v18.01c0,.84-.28,1.56-.85,2.15-.57.59-1.27.89-2.11.89Z"/>
        <path class="cls-3" d="M281.69,31.09c-1.24,0-2.15-.25-2.74-.74-.59-.49-.89-1.26-.89-2.3v-1.04c0-1.04.32-1.8.96-2.3.64-.49,1.56-.74,2.74-.74s2.08.25,2.67.74c.59.49.89,1.26.89,2.3v1.04c0,1.04-.31,1.8-.93,2.3-.62.49-1.52.74-2.71.74ZM284.73,71.93c0,.84-.28,1.56-.85,2.15-.57.59-1.27.89-2.11.89-.89,0-1.62-.3-2.19-.89-.57-.59-.85-1.31-.85-2.15v-32.84c0-.84.28-1.56.85-2.15.57-.59,1.3-.89,2.19-.89.84,0,1.54.3,2.11.89.57.59.85,1.31.85,2.15v32.84Z"/>
      </g>
      <g>
        <path class="cls-2" d="M100.67,124.25c3.31-4.75,5.67-9.53,7.3-14.21,3.7-11.7,3.13-23.47,1.42-32.28-1.61-6.72-4.04-11.81-5.68-14.32-.88,1.41,1.76,13.01-9.23,23.92-10.9,10.81-22.35,7.15-23.88,8.69-2.17,2.17-8.14,10.58-14.11,20.63-4.57,7.69-5.73,16.97-6.51,30.4.58-.01,2.37-.02,4.99-.21,6.76-10.17,5.01-19.01,3.81-23.51l-1.3-4.26c.19-.35.39-.7.59-1.05,1.33-2.24,2.64-4.36,3.9-6.35,1.28,3,3.21,7.79,4.37,13.29.96,4.56.26,11.39-.87,20.43,1.88-.38,3.85-.85,5.88-1.42,10.16-2.98,21.66-8.73,29.33-19.74ZM72.67,138.81c1.49-2.21,4.62-6.89,7.82-11.92,6.75-10.62,13.77-15.38,13.43-15.72-.38-.38-9.04,5.67-16.34,15.53-2.52,3.4-4.41,6.55-5.78,9.07-.11-2.94-.05-7.42.91-11.72.62-2.77,1.38-5.09,5.7-9.82,5.2-5.7,11.02-9.08,16.98-13.1,5.62-3.79,9.54-9.44,9.54-9.44,0,0,1.59,13.76-8.62,29.66-5.53,8.61-20.39,15.93-23.64,17.47Z"/>
        <path class="cls-1" d="M48.52,119.83c6.76-15.21,17.47-27.26,16.96-28.27-2.26-4.52-4.52-16.96,0-26.01,3.95-7.9,12.44-14.7,23.25-17.98.07-.02.12-.06.15-.11-.13-.12-.26-.23-.38-.34-2.5-2.2-17-14.29-22.22-31.35-2.03-6.63-2.26-11.91-2.27-13.88-1.62,3.69-8.71,18.24-8.71,41.04,0,20.82,3.39,35.06,3.39,35.06,0,0-.26-.59-.69-1.7.22,1.1.36,1.68.36,1.68,0,0-8.22-18.45-6.79-41.84C52.96,13.76,60.04.98,59.6,0,54.49,1.51,2.28,43.51,8.94,74.6c4.32,20.18,17.23,17.41,27.14,33.93,3.39,5.65,4.52,12.44,4.52,12.44,0,0-.22-.69-.72-1.85.27,1.13.39,1.83.39,1.83,0,0-2.66-8.32-10.18-15.83-9.05-9.05-14.45-8.47-21.49-18.09-4.98-6.81-4.37-11.77-5.41-12.38-1.37,1.13-8.13,25.95,3.48,46.32,2.93,5.13,7.51,9.8,12.44,13.69,9.99,7.34,21.16,10.98,23.42,11.17.1,0,.21.02.33.03,0,0,0,0,0-.01,0-10.18,1.13-15.83,5.65-26.01ZM29.24,129.07c3.11,4.44,6.15,8.56,7.59,10.5-3.02-1.26-16.82-7.3-22.19-14.89-9.93-14.02-9.05-26.58-9.05-26.58,0,0,3.8,4.96,9.05,8.18,5.58,3.41,11,6.24,15.96,11.2,4.12,4.12,4.9,6.19,5.58,8.68,1.05,3.86,1.29,7.92,1.31,10.6-1.35-2.23-3.2-5.01-5.63-8-7.04-8.66-15.15-13.8-15.48-13.43-.29.32,6.28,4.36,12.85,13.73ZM42.07,90.41s-8.21-1.07-13.27-7.36c-4.86-6.05-10.88-24.23-12.57-29.55-.04-.14.15-.22.21-.09,2.63,5.35,12.24,24.31,15.16,22.37,1.1-.73-7.38-18.88-10.33-25.09-.06-.12.12-.22.19-.1,3.52,5.82,13.86,22.56,15.86,21.66,1.82-.82-7.95-18.79-11.36-24.95-.07-.12.11-.23.18-.11,3.98,5.77,15.58,22.4,16.77,21.81,2-1-9.3-21.52-11.91-26.2-.06-.11.09-.22.18-.12,3.57,4.19,19.55,23.33,20.78,31.98,1.13,7.92-4.09,12.62-4.09,12.62,0,0,4.36,4.58,9.03,13.17-1.34,1.97-2.78,4.18-4.24,6.58-5-10.56-10.59-16.6-10.59-16.6Z"/>
        <path class="cls-4" d="M71.14,63.29c-5.97,8.84-6.58,23.09,0,27.14,6.44,3.97,18.36-1.6,23.75-10.18,3.95-6.28,6.24-16.13,4.37-22.4-1.71-1.91-3.61-3.9-5.45-5.72-6.81-1.88-17.74,3.87-22.67,11.16Z"/>
      </g>
      <g>
        <path class="cls-3" d="M147.02,94.44c2.67,0,5.1.67,7.3,2,2.2,1.33,3.93,3.16,5.19,5.49,1.26,2.32,1.89,4.97,1.89,7.93s-.63,5.56-1.89,7.93c-1.26,2.37-2.99,4.26-5.19,5.67-2.2,1.41-4.63,2.11-7.3,2.11h-15.05l.52-.96v18.68c0,.84-.27,1.56-.82,2.15-.54.59-1.24.89-2.08.89-.89,0-1.61-.3-2.15-.89-.54-.59-.82-1.31-.82-2.15v-45.81c0-.84.3-1.56.89-2.15s1.31-.89,2.15-.89h17.34ZM147.02,119.79c1.58,0,3-.44,4.26-1.33,1.26-.89,2.26-2.09,3-3.59.74-1.51,1.11-3.17,1.11-5s-.37-3.47-1.11-4.93c-.74-1.46-1.74-2.61-3-3.45-1.26-.84-2.68-1.26-4.26-1.26h-15.05l.52-.89v21.2l-.52-.74h15.05Z"/>
        <path class="cls-3" d="M176.59,143.28c0,.84-.3,1.56-.89,2.15-.59.59-1.31.89-2.15.89s-1.54-.3-2.11-.89c-.57-.59-.85-1.31-.85-2.15v-48.77c0-.84.3-1.56.89-2.15.59-.59,1.31-.89,2.15-.89.89,0,1.61.3,2.15.89.54.59.82,1.31.82,2.15v48.77Z"/>
        <path class="cls-3" d="M219.66,107.63c.84,0,1.54.28,2.11.85.57.57.85,1.27.85,2.11v32.69c0,.84-.29,1.56-.85,2.15-.57.59-1.27.89-2.11.89-.89,0-1.62-.3-2.19-.89-.57-.59-.85-1.31-.85-2.15v-7.04l1.41-.15c0,1.14-.37,2.33-1.11,3.59-.74,1.26-1.75,2.45-3.04,3.56-1.29,1.11-2.79,2.03-4.52,2.74-1.73.72-3.61,1.07-5.63,1.07-3.36,0-6.39-.88-9.08-2.63-2.69-1.75-4.81-4.14-6.34-7.15-1.53-3.01-2.3-6.45-2.3-10.3s.78-7.35,2.33-10.34c1.56-2.99,3.66-5.34,6.3-7.04,2.64-1.7,5.62-2.56,8.93-2.56,2.12,0,4.1.35,5.93,1.04,1.83.69,3.42,1.63,4.78,2.82,1.36,1.19,2.41,2.5,3.15,3.93.74,1.43,1.11,2.87,1.11,4.3l-1.93-.44v-8.08c0-.84.28-1.54.85-2.11s1.3-.85,2.19-.85ZM204.39,141.58c2.47,0,4.64-.64,6.52-1.93,1.88-1.28,3.36-3.03,4.45-5.23,1.09-2.2,1.63-4.68,1.63-7.45s-.54-5.16-1.63-7.34c-1.09-2.17-2.57-3.9-4.45-5.19-1.88-1.28-4.05-1.93-6.52-1.93s-4.58.63-6.49,1.89c-1.9,1.26-3.4,2.98-4.48,5.15-1.09,2.17-1.63,4.65-1.63,7.41s.53,5.25,1.59,7.45c1.06,2.2,2.54,3.94,4.45,5.23,1.9,1.29,4.09,1.93,6.56,1.93Z"/>
        <path class="cls-3" d="M252.64,107.04c3.36,0,6,.69,7.93,2.08,1.93,1.38,3.3,3.24,4.11,5.56.82,2.32,1.22,4.94,1.22,7.86v20.75c0,.84-.28,1.56-.85,2.15-.57.59-1.27.89-2.11.89-.89,0-1.61-.3-2.15-.89-.54-.59-.82-1.31-.82-2.15v-20.61c0-1.88-.28-3.58-.85-5.11-.57-1.53-1.52-2.75-2.85-3.67-1.33-.91-3.11-1.37-5.34-1.37-2.08,0-3.98.46-5.71,1.37-1.73.91-3.11,2.14-4.15,3.67-1.04,1.53-1.56,3.24-1.56,5.11v20.61c0,.84-.28,1.56-.85,2.15-.57.59-1.27.89-2.11.89s-1.54-.3-2.11-.89c-.57-.59-.85-1.31-.85-2.15v-32.24c0-.89.28-1.62.85-2.19s1.27-.85,2.11-.85c.89,0,1.61.28,2.15.85.54.57.82,1.3.82,2.19v5.19l-1.48,1.63c.25-1.28.82-2.58,1.7-3.89.89-1.31,2-2.48,3.34-3.52,1.33-1.04,2.82-1.86,4.45-2.48,1.63-.62,3.34-.93,5.11-.93Z"/>
        <path class="cls-3" d="M295.93,107.04c3.36,0,6,.69,7.93,2.08,1.93,1.38,3.3,3.24,4.11,5.56.82,2.32,1.22,4.94,1.22,7.86v20.75c0,.84-.28,1.56-.85,2.15-.57.59-1.27.89-2.11.89-.89,0-1.61-.3-2.15-.89-.54-.59-.82-1.31-.82-2.15v-20.61c0-1.88-.28-3.58-.85-5.11-.57-1.53-1.52-2.75-2.85-3.67-1.33-.91-3.11-1.37-5.34-1.37-2.08,0-3.98.46-5.71,1.37-1.73.91-3.11,2.14-4.15,3.67-1.04,1.53-1.56,3.24-1.56,5.11v20.61c0,.84-.28,1.56-.85,2.15-.57.59-1.27.89-2.11.89s-1.54-.3-2.11-.89c-.57-.59-.85-1.31-.85-2.15v-32.24c0-.89.28-1.62.85-2.19s1.27-.85,2.11-.85c.89,0,1.61.28,2.15.85.54.57.82,1.3.82,2.19v5.19l-1.48,1.63c.25-1.28.82-2.58,1.7-3.89.89-1.31,2-2.48,3.34-3.52,1.33-1.04,2.82-1.86,4.45-2.48,1.63-.62,3.34-.93,5.11-.93Z"/>
        <path class="cls-3" d="M337.88,147.06c-4,0-7.49-.84-10.45-2.52-2.96-1.68-5.26-3.99-6.89-6.93-1.63-2.94-2.45-6.34-2.45-10.19,0-4.3.85-7.97,2.56-11.01,1.7-3.04,3.93-5.36,6.67-6.97,2.74-1.61,5.64-2.41,8.71-2.41,2.27,0,4.47.42,6.6,1.26,2.12.84,4,2.08,5.63,3.71s2.94,3.56,3.93,5.78c.99,2.22,1.51,4.74,1.56,7.56,0,.79-.3,1.45-.89,1.96-.59.52-1.29.78-2.08.78h-29.28l-1.33-5.11h28.46l-1.19,1.04v-1.63c-.15-2.03-.8-3.77-1.96-5.23-1.16-1.46-2.57-2.58-4.22-3.37-1.66-.79-3.4-1.19-5.23-1.19-1.48,0-2.95.27-4.41.82-1.46.54-2.77,1.38-3.93,2.52-1.16,1.14-2.1,2.62-2.82,4.45-.72,1.83-1.07,4.03-1.07,6.6,0,2.87.58,5.39,1.74,7.56,1.16,2.18,2.78,3.89,4.85,5.15,2.08,1.26,4.5,1.89,7.26,1.89,1.73,0,3.24-.22,4.52-.67,1.28-.44,2.38-1,3.3-1.67.91-.67,1.69-1.35,2.33-2.04.64-.44,1.28-.67,1.93-.67.69,0,1.28.25,1.78.74.49.49.74,1.09.74,1.78,0,.84-.4,1.61-1.19,2.3-1.43,1.53-3.32,2.87-5.67,4-2.35,1.14-4.85,1.7-7.52,1.7Z"/>
        <path class="cls-3" d="M365.6,146.32c-.84,0-1.54-.3-2.11-.89-.57-.59-.85-1.31-.85-2.15v-32.24c0-.89.28-1.62.85-2.19.57-.57,1.27-.85,2.11-.85.89,0,1.61.28,2.15.85.54.57.82,1.3.82,2.19v9.71l-.89-1.56c.3-1.53.83-3.03,1.59-4.48.77-1.46,1.74-2.77,2.93-3.93,1.19-1.16,2.54-2.08,4.08-2.74,1.53-.67,3.21-1,5.04-1,1.09,0,2.09.26,3,.78.91.52,1.37,1.25,1.37,2.19,0,1.04-.27,1.82-.82,2.33-.54.52-1.16.78-1.85.78-.64,0-1.26-.15-1.85-.44-.59-.3-1.33-.44-2.22-.44-1.24,0-2.46.35-3.67,1.04-1.21.69-2.32,1.64-3.34,2.85-1.01,1.21-1.83,2.59-2.45,4.15-.62,1.56-.93,3.22-.93,5v18.01c0,.84-.28,1.56-.85,2.15-.57.59-1.27.89-2.11.89Z"/>
      </g>
    </g>
  </g>
</svg>