<?xml version="1.0" encoding="UTF-8"?>
<svg id="Camada_2" data-name="Camada 2" xmlns="http://www.w3.org/2000/svg" viewBox="0 0 479.79 376.37">
  <defs>
    <style>
      .cls-1 {
        fill: #b6d8a2;
        stroke-width: 0px;
      }
    </style>
  </defs>
  <g id="Camada_1-2" data-name="Camada 1">
    <g>
      <g>
        <path class="cls-1" d="M43.05,317.48c.94,0,1.69.3,2.24.91.55.61.83,1.36.83,2.24v51.42c0,1.05-.33,1.89-1,2.53-.66.64-1.49.95-2.49.95-.44,0-.91-.1-1.41-.29-.5-.19-.89-.46-1.16-.79l-35.5-46.94,1.66-.91v45.86c0,.89-.29,1.62-.87,2.2-.58.58-1.34.87-2.28.87s-1.69-.29-2.24-.87c-.55-.58-.83-1.31-.83-2.2v-51.59c0-1.05.33-1.88,1-2.49.66-.61,1.44-.91,2.32-.91.5,0,1.01.1,1.53.29.52.19.93.51,1.2.95l34.92,46.2-1,1.33v-45.62c0-.88.29-1.63.87-2.24.58-.61,1.31-.91,2.2-.91Z"/>
        <path class="cls-1" d="M91.56,332.66c.99,0,1.8.32,2.4.95.61.64.91,1.45.91,2.45v22.56c0,5.59-1.56,9.91-4.69,12.98-3.12,3.07-7.48,4.6-13.06,4.6s-9.86-1.53-12.98-4.6c-3.12-3.07-4.69-7.39-4.69-12.98v-22.56c0-1,.32-1.81.95-2.45s1.42-.95,2.36-.95c1,0,1.8.32,2.41.95.61.64.91,1.45.91,2.45v22.56c0,3.76.97,6.61,2.9,8.54,1.93,1.94,4.64,2.9,8.13,2.9s6.28-.97,8.21-2.9c1.93-1.93,2.9-4.78,2.9-8.54v-22.56c0-1,.3-1.81.91-2.45.61-.63,1.41-.95,2.41-.95Z"/>
        <path class="cls-1" d="M105.5,332.91h19.49c.88,0,1.62.3,2.2.91.58.61.87,1.36.87,2.24,0,.83-.29,1.53-.87,2.12-.58.58-1.31.87-2.2.87h-19.49c-.83,0-1.56-.3-2.2-.91-.64-.61-.95-1.33-.95-2.16,0-.88.32-1.62.95-2.2.63-.58,1.37-.87,2.2-.87ZM114.21,321.63c.94,0,1.71.33,2.32,1,.61.66.91,1.47.91,2.41v39.98c0,1.33.19,2.32.58,2.99.39.66.9,1.12,1.53,1.37.63.25,1.26.37,1.87.37.55,0,1.04-.1,1.45-.29.41-.19.9-.29,1.45-.29s1.06.26,1.53.79c.47.53.71,1.2.71,2.03,0,1-.58,1.84-1.74,2.53-1.16.69-2.46,1.04-3.9,1.04-.77,0-1.73-.05-2.86-.17-1.13-.11-2.25-.47-3.36-1.08-1.11-.61-2.03-1.62-2.78-3.03-.75-1.41-1.12-3.39-1.12-5.93v-40.31c0-.94.33-1.74,1-2.41.66-.66,1.46-1,2.41-1Z"/>
        <path class="cls-1" d="M140.58,375.54c-.94,0-1.73-.33-2.36-1-.64-.66-.95-1.46-.95-2.41v-36.08c0-1,.32-1.81.95-2.45s1.42-.95,2.36-.95c1,0,1.8.32,2.41.95.61.64.91,1.45.91,2.45v10.87l-1-1.74c.33-1.71.93-3.39,1.78-5.02.86-1.63,1.95-3.1,3.28-4.4,1.33-1.3,2.85-2.32,4.56-3.07,1.71-.75,3.59-1.12,5.64-1.12,1.22,0,2.34.29,3.36.87,1.02.58,1.53,1.4,1.53,2.45,0,1.16-.3,2.03-.91,2.61-.61.58-1.3.87-2.07.87-.72,0-1.41-.17-2.07-.5-.66-.33-1.49-.5-2.49-.5-1.38,0-2.75.39-4.11,1.16-1.36.78-2.6,1.84-3.73,3.19-1.13,1.36-2.05,2.9-2.74,4.64-.69,1.74-1.04,3.61-1.04,5.6v20.15c0,.94-.32,1.74-.95,2.41-.64.66-1.42,1-2.36,1Z"/>
        <path class="cls-1" d="M173.5,326.44c-1.38,0-2.41-.28-3.07-.83-.66-.55-1-1.41-1-2.57v-1.16c0-1.16.36-2.02,1.08-2.57.72-.55,1.74-.83,3.07-.83s2.32.28,2.99.83c.66.55,1,1.41,1,2.57v1.16c0,1.16-.35,2.02-1.04,2.57-.69.55-1.7.83-3.03.83ZM176.9,372.14c0,.94-.32,1.74-.95,2.41-.64.66-1.42,1-2.36,1-1,0-1.81-.33-2.45-1-.64-.66-.95-1.46-.95-2.41v-36.74c0-.94.32-1.74.95-2.41.63-.66,1.45-1,2.45-1,.94,0,1.73.33,2.36,1,.63.66.95,1.47.95,2.41v36.74Z"/>
        <path class="cls-1" d="M212.73,317.48c2.99,0,5.71.75,8.17,2.24,2.46,1.49,4.4,3.54,5.81,6.14,1.41,2.6,2.12,5.56,2.12,8.87s-.71,6.22-2.12,8.87c-1.41,2.65-3.35,4.77-5.81,6.34-2.46,1.58-5.18,2.36-8.17,2.36h-16.84l.58-1.08v20.9c0,.94-.3,1.74-.91,2.41-.61.66-1.38,1-2.32,1-1,0-1.8-.33-2.41-1-.61-.66-.91-1.46-.91-2.41v-51.26c0-.94.33-1.74,1-2.41s1.46-1,2.41-1h19.41ZM212.73,345.85c1.77,0,3.36-.5,4.77-1.49,1.41-1,2.53-2.34,3.36-4.02.83-1.69,1.24-3.55,1.24-5.6s-.41-3.88-1.24-5.52c-.83-1.63-1.95-2.92-3.36-3.86-1.41-.94-3-1.41-4.77-1.41h-16.84l.58-1v23.72l-.58-.83h16.84Z"/>
        <path class="cls-1" d="M245.82,372.14c0,.94-.33,1.74-1,2.41-.66.66-1.47,1-2.41,1s-1.73-.33-2.36-1c-.64-.66-.95-1.46-.95-2.41v-54.57c0-.94.33-1.74,1-2.41.66-.66,1.46-1,2.41-1,1,0,1.8.33,2.41,1,.61.66.91,1.47.91,2.41v54.57Z"/>
        <path class="cls-1" d="M294.01,332.25c.94,0,1.73.32,2.36.95.63.64.95,1.42.95,2.36v36.58c0,.94-.32,1.74-.95,2.41-.64.66-1.42,1-2.36,1-1,0-1.81-.33-2.45-1-.64-.66-.95-1.46-.95-2.41v-7.88l1.58-.17c0,1.27-.41,2.61-1.24,4.02-.83,1.41-1.96,2.74-3.4,3.98-1.44,1.24-3.12,2.27-5.06,3.07-1.94.8-4.04,1.2-6.3,1.2-3.76,0-7.15-.98-10.16-2.94-3.01-1.96-5.38-4.63-7.09-8-1.71-3.37-2.57-7.22-2.57-11.53s.87-8.22,2.61-11.57c1.74-3.34,4.09-5.97,7.05-7.88,2.96-1.91,6.29-2.86,9.99-2.86,2.38,0,4.59.39,6.63,1.16,2.05.78,3.83,1.82,5.35,3.15,1.52,1.33,2.7,2.79,3.53,4.4.83,1.6,1.24,3.21,1.24,4.81l-2.16-.5v-9.04c0-.94.32-1.73.95-2.36s1.45-.95,2.45-.95ZM276.93,370.23c2.76,0,5.2-.72,7.3-2.16,2.1-1.44,3.76-3.39,4.98-5.85,1.22-2.46,1.82-5.24,1.82-8.34s-.61-5.78-1.82-8.21c-1.22-2.43-2.88-4.37-4.98-5.81-2.1-1.44-4.53-2.16-7.3-2.16s-5.13.7-7.26,2.11c-2.13,1.41-3.8,3.33-5.02,5.76-1.22,2.43-1.82,5.2-1.82,8.29s.59,5.88,1.78,8.34c1.19,2.46,2.85,4.41,4.98,5.85,2.13,1.44,4.57,2.16,7.34,2.16Z"/>
        <path class="cls-1" d="M330.92,331.58c3.76,0,6.72.78,8.87,2.32,2.16,1.55,3.69,3.62,4.6,6.22.91,2.6,1.37,5.53,1.37,8.79v23.22c0,.94-.32,1.74-.95,2.41-.64.66-1.42,1-2.36,1-1,0-1.8-.33-2.41-1-.61-.66-.91-1.46-.91-2.41v-23.06c0-2.1-.32-4.01-.95-5.72-.64-1.71-1.7-3.08-3.19-4.11-1.49-1.02-3.48-1.53-5.97-1.53-2.32,0-4.45.51-6.39,1.53-1.94,1.02-3.48,2.39-4.64,4.11-1.16,1.71-1.74,3.62-1.74,5.72v23.06c0,.94-.32,1.74-.95,2.41-.64.66-1.42,1-2.36,1s-1.73-.33-2.36-1c-.64-.66-.95-1.46-.95-2.41v-36.08c0-1,.32-1.81.95-2.45s1.42-.95,2.36-.95c1,0,1.8.32,2.41.95.61.64.91,1.45.91,2.45v5.81l-1.66,1.82c.28-1.44.91-2.89,1.91-4.35,1-1.46,2.24-2.78,3.73-3.94,1.49-1.16,3.15-2.09,4.98-2.78,1.82-.69,3.73-1.04,5.72-1.04Z"/>
        <path class="cls-1" d="M379.35,331.58c3.76,0,6.72.78,8.87,2.32,2.16,1.55,3.69,3.62,4.6,6.22.91,2.6,1.37,5.53,1.37,8.79v23.22c0,.94-.32,1.74-.95,2.41-.64.66-1.42,1-2.36,1-1,0-1.8-.33-2.41-1-.61-.66-.91-1.46-.91-2.41v-23.06c0-2.1-.32-4.01-.95-5.72-.64-1.71-1.7-3.08-3.19-4.11-1.49-1.02-3.48-1.53-5.97-1.53-2.32,0-4.45.51-6.39,1.53-1.94,1.02-3.48,2.39-4.64,4.11-1.16,1.71-1.74,3.62-1.74,5.72v23.06c0,.94-.32,1.74-.95,2.41-.64.66-1.42,1-2.36,1s-1.73-.33-2.36-1c-.64-.66-.95-1.46-.95-2.41v-36.08c0-1,.32-1.81.95-2.45s1.42-.95,2.36-.95c1,0,1.8.32,2.41.95.61.64.91,1.45.91,2.45v5.81l-1.66,1.82c.28-1.44.91-2.89,1.91-4.35,1-1.46,2.24-2.78,3.73-3.94,1.49-1.16,3.15-2.09,4.98-2.78,1.82-.69,3.73-1.04,5.72-1.04Z"/>
        <path class="cls-1" d="M426.3,376.37c-4.48,0-8.38-.94-11.69-2.82-3.32-1.88-5.89-4.46-7.71-7.75-1.82-3.29-2.74-7.09-2.74-11.4,0-4.81.95-8.92,2.86-12.32,1.91-3.4,4.4-6,7.46-7.8,3.07-1.8,6.32-2.7,9.75-2.7,2.54,0,5,.47,7.38,1.41,2.38.94,4.48,2.32,6.3,4.15s3.29,3.98,4.4,6.47c1.11,2.49,1.69,5.31,1.74,8.46,0,.88-.33,1.62-1,2.2-.66.58-1.44.87-2.32.87h-32.76l-1.49-5.72h31.85l-1.33,1.16v-1.82c-.17-2.27-.9-4.22-2.2-5.85-1.3-1.63-2.88-2.89-4.73-3.77-1.85-.88-3.8-1.33-5.85-1.33-1.66,0-3.3.3-4.93.91-1.63.61-3.1,1.55-4.4,2.82-1.3,1.27-2.35,2.93-3.15,4.98-.8,2.05-1.2,4.51-1.2,7.38,0,3.21.65,6.03,1.95,8.46,1.3,2.43,3.11,4.35,5.43,5.76,2.32,1.41,5.03,2.12,8.13,2.12,1.93,0,3.62-.25,5.06-.75,1.44-.5,2.67-1.12,3.69-1.87,1.02-.75,1.89-1.51,2.61-2.28.72-.5,1.44-.75,2.16-.75.77,0,1.44.28,1.99.83.55.55.83,1.22.83,1.99,0,.94-.44,1.8-1.33,2.57-1.6,1.71-3.72,3.21-6.34,4.48-2.63,1.27-5.43,1.91-8.42,1.91Z"/>
        <path class="cls-1" d="M457.32,375.54c-.94,0-1.73-.33-2.36-1-.64-.66-.95-1.46-.95-2.41v-36.08c0-1,.32-1.81.95-2.45s1.42-.95,2.36-.95c1,0,1.8.32,2.41.95.61.64.91,1.45.91,2.45v10.87l-1-1.74c.33-1.71.93-3.39,1.78-5.02.86-1.63,1.95-3.1,3.28-4.4,1.33-1.3,2.85-2.32,4.56-3.07,1.71-.75,3.59-1.12,5.64-1.12,1.22,0,2.34.29,3.36.87,1.02.58,1.53,1.4,1.53,2.45,0,1.16-.3,2.03-.91,2.61-.61.58-1.3.87-2.07.87-.72,0-1.41-.17-2.07-.5-.66-.33-1.49-.5-2.49-.5-1.38,0-2.75.39-4.11,1.16-1.36.78-2.6,1.84-3.73,3.19-1.13,1.36-2.05,2.9-2.74,4.64-.69,1.74-1.04,3.61-1.04,5.6v20.15c0,.94-.32,1.74-.95,2.41-.64.66-1.42,1-2.36,1Z"/>
      </g>
      <g>
        <path class="cls-1" d="M328.49,242.96c6.47-9.29,11.09-18.64,14.28-27.79,7.23-22.88,6.13-45.9,2.77-63.12-3.15-13.13-7.9-23.09-11.1-28.01-1.71,2.76,3.45,25.45-18.05,46.78-21.31,21.15-43.7,13.98-46.71,16.98-4.25,4.25-15.92,20.69-27.6,40.34-8.93,15.04-11.21,33.19-12.74,59.44,1.13-.02,4.63-.04,9.76-.42,13.22-19.88,9.8-37.16,7.45-45.97l-2.54-8.33c.37-.69.76-1.38,1.16-2.05,2.6-4.37,5.16-8.53,7.63-12.41,2.51,5.87,6.28,15.23,8.54,25.99,1.88,8.92.5,22.27-1.71,39.95,3.67-.74,7.53-1.66,11.5-2.79,19.87-5.82,42.36-17.07,57.35-38.59ZM273.75,271.43c2.92-4.33,9.03-13.48,15.29-23.31,13.2-20.77,26.94-30.08,26.27-30.75-.74-.75-17.67,11.08-31.95,30.38-4.92,6.66-8.62,12.8-11.31,17.73-.21-5.76-.09-14.52,1.79-22.91,1.21-5.42,2.69-9.95,11.15-19.2,10.18-11.15,21.55-17.75,33.21-25.62,10.98-7.42,18.66-18.45,18.66-18.45,0,0,3.11,26.9-16.86,57.99-10.81,16.83-39.87,31.16-46.24,34.15Z"/>
        <path class="cls-1" d="M226.52,234.33c13.22-29.75,34.16-53.31,33.17-55.29-4.42-8.85-8.85-33.17,0-50.86,7.72-15.45,24.33-28.75,45.47-35.16.13-.04.23-.12.29-.22-.25-.23-.5-.45-.75-.66-4.88-4.29-33.25-27.94-43.45-61.3-3.96-12.96-4.43-23.29-4.45-27.13-3.17,7.21-17.02,35.67-17.02,80.25,0,40.71,6.63,68.55,6.63,68.55,0,0-.52-1.16-1.35-3.32.43,2.15.7,3.28.7,3.28,0,0-16.07-36.07-13.27-81.82C235.19,26.91,249.03,1.92,248.18,0c-9.99,2.96-112.08,85.07-99.05,145.87,8.46,39.46,33.7,34.05,53.07,66.34,6.63,11.06,8.85,24.33,8.85,24.33,0,0-.43-1.35-1.4-3.62.53,2.22.76,3.58.76,3.58,0,0-5.21-16.27-19.9-30.96-17.69-17.69-28.25-16.57-42.02-35.38-9.75-13.32-8.54-23.01-10.59-24.2-2.68,2.2-15.9,50.75,6.81,90.58,5.72,10.04,14.68,19.16,24.33,26.77,19.53,14.35,41.38,21.46,45.79,21.84.2.02.42.04.64.07,0,0,0-.02,0-.03,0-19.9,2.21-30.96,11.06-50.86ZM188.82,252.38c6.08,8.67,12.02,16.73,14.85,20.54-5.9-2.46-32.89-14.27-43.4-29.11-19.42-27.41-17.7-51.97-17.7-51.97,0,0,7.42,9.71,17.7,15.99,10.91,6.67,21.51,12.19,31.21,21.9,8.06,8.06,9.59,12.11,10.92,16.98,2.05,7.55,2.53,15.5,2.57,20.73-2.64-4.37-6.26-9.79-11-15.64-13.76-16.94-29.62-26.98-30.27-26.27-.58.63,12.28,8.53,25.13,26.84ZM213.91,176.8s-16.05-2.08-25.94-14.4c-9.49-11.82-21.27-47.38-24.59-57.78-.08-.27.29-.43.41-.18,5.15,10.46,23.94,47.54,29.64,43.74,2.16-1.44-14.44-36.92-20.2-49.05-.12-.24.23-.43.37-.2,6.88,11.38,27.1,44.11,31,42.35,3.56-1.61-15.54-36.75-22.21-48.8-.13-.24.21-.44.36-.22,7.78,11.28,30.47,43.81,32.78,42.65,3.92-1.96-18.19-42.09-23.29-51.23-.12-.22.18-.43.34-.24,6.98,8.19,38.22,45.63,40.64,62.53,2.21,15.48-8,24.68-8,24.68,0,0,8.52,8.95,17.66,25.75-2.61,3.85-5.43,8.17-8.28,12.86-9.78-20.64-20.71-32.46-20.71-32.46Z"/>
        <path class="cls-1" d="M270.75,123.75c-11.67,17.28-12.87,45.16,0,53.07,12.6,7.75,35.9-3.13,46.44-19.9,7.72-12.29,12.2-31.54,8.54-43.8-3.34-3.73-7.07-7.62-10.65-11.19-13.32-3.68-34.7,7.56-44.33,21.82Z"/>
      </g>
    </g>
  </g>
</svg>